<svg width="9" height="9" viewBox="0 0 9 9" fill="none" xmlns="http://www.w3.org/2000/svg">
<g clip-path="url(#clip0_61_2)">
<path d="M5.29453 0.935156C5.26289 0.963281 5.23828 1.01602 5.23828 1.04766C5.23828 1.0793 5.96953 1.83867 6.8625 2.73164L8.49023 4.35938L4.25391 4.36641L0.0175781 4.37695V4.5V4.62305L4.25391 4.63359L8.49023 4.64063L6.8625 6.26836C5.96953 7.16133 5.23828 7.9207 5.23828 7.95234C5.23828 8.02617 5.3332 8.12109 5.40703 8.12109C5.43867 8.12109 6.26133 7.32656 7.23164 6.35625C8.63437 4.95352 9 4.57031 9 4.5C9 4.42969 8.63437 4.04648 7.23164 2.64375C6.26133 1.67344 5.43867 0.878906 5.40703 0.878906C5.37539 0.878906 5.32266 0.903516 5.29453 0.935156Z" fill="white" fill-opacity="0.6"/>
</g>
<defs>
<clipPath id="clip0_61_2">
<rect width="9" height="9" fill="white"/>
</clipPath>
</defs>
</svg>
